<svg id="Calque_1" data-name="Calque 1" xmlns="http://www.w3.org/2000/svg" viewBox="0 0 432 432"><defs><style>.cls-1{fill:#c7a05e;}</style></defs><title>5_50_REDO_Motivational_Quotes_Designs_SHOP_LoveSVG</title><path d="M201.09,106.17c-4.29,0-13.16,2.61-13,24.09,0,6.82,1.78,21.85,13.08,21.76s13-15.13,13-22C214.26,108.78,205.48,106.17,201.09,106.17Z"/><path d="M247.12,106.17c-4.29,0-13.16,2.61-13,24.09,0,6.82,1.77,21.85,13.07,21.76s13-15.13,13-22C260.29,108.78,251.51,106.17,247.12,106.17Z"/><path d="M362.94,131.27l14.4-42.41c.85-2.49-.56-5.29-2.65-5.29L56.91,83.33c-2.23,0-3.63,3.13-2.52,5.64,19.55,44.51,19.46,42.79,18.2,45.42l-18,37.35c-1.2,2.51.19,5.76,2.46,5.77l317.37.24c2.15,0,3.55-2.91,2.62-5.42C361.85,131.4,362.19,133.47,362.94,131.27ZM111.36,161.82C95.48,161.35,91,146,90.81,130.45s4.58-33,20.45-34c7.29-.46,17.28,4.58,19.24,18.49H117.61c-.09-.09,1.59-9.71-6-9.61-10.18.18-12.89,14.94-12.7,25,.37,25.87,13.16,22.51,13.26,22.6,3.92-.56,7.37-5,6.07-11h12.88C129.57,154.72,119.39,162.29,111.36,161.82Zm62.84,0H161.31a199.63,199.63,0,0,0,2.15-20.36H147.77a200.45,200.45,0,0,0,2.06,20.36H136.94a223,223,0,0,0,0-65.46h12.89a213.94,213.94,0,0,0-2.34,37.26h16.25a222.1,222.1,0,0,0-2.43-37.26H174.2A226.1,226.1,0,0,0,174.2,161.82Zm39.31-4.57c-6.63,6.44-18.21,6.35-24.84,0-6.91-6.82-8.4-19.15-8.4-28.3,0-43.8,41.74-43.8,41.74,0C222,138.1,220.52,150.43,213.51,157.25Zm46,0c-6.63,6.44-18.21,6.35-24.84,0-6.91-6.82-8.41-19.15-8.41-28.3,0-43.8,41.74-43.8,41.74,0C268,138.1,266.55,150.43,259.55,157.25Zm13.07-14.57,12-.47c-2.71,17,26.34,15.32.75-9.9C252,98.51,299,81.79,303.71,111.21l-12,.56c2-12.79-21.95-8.5.37,14.38C326.12,160,278.12,178,272.62,142.68Zm68.16-35.49a158.86,158.86,0,0,0-18.39-2A210.08,210.08,0,0,0,321,134a56.47,56.47,0,0,0,11.67-1.86V143a70.08,70.08,0,0,0-11.39-1.87c.18,3.46.46,5.88,1.21,12a159.54,159.54,0,0,0,18.3-2V162c-12.79-1.4-20.35-1.5-30.53-.19a225.87,225.87,0,0,0,.28-65.37c10.46,1.22,24.28.84,30.25-.09Z"/><path d="M127,206.7a4.68,4.68,0,0,1-3-1.12,6.89,6.89,0,0,1-.42-6.73c.56-.74,1.74-1.24,3.55-1.49a53,53,0,0,1,7.7-.28q5,.09,13.21.09a6.15,6.15,0,0,1,4.35,1.36,4.86,4.86,0,0,1,1.63,3,4.65,4.65,0,0,1-.75,3.09,3.62,3.62,0,0,1-2.89,1.63c-1.43.13-2.54.19-3.32.19a1.74,1.74,0,0,0-1.68,1,9,9,0,0,0-.51,3.69c0,1.8.08,4.56.23,8.26s.33,8.59.52,14.66.28,13.71.28,22.92a12.65,12.65,0,0,1-.24,2.62,3.09,3.09,0,0,1-1.07,1.82,4.73,4.73,0,0,1-2.52.89,24.53,24.53,0,0,1-4.67-.1,4.66,4.66,0,0,1-2.34-.84,3.94,3.94,0,0,1-1.26-1.72,9.73,9.73,0,0,1-.56-2.48c-.09-.93-.14-1.93-.14-3q.19-13.26.28-21.85t0-13.82a72.36,72.36,0,0,0-.42-7.65,6.48,6.48,0,0,0-1.07-3.27,2.2,2.2,0,0,0-1.91-.75A17.18,17.18,0,0,1,127,206.7Z"/><path d="M196.23,215.85c0,.19.06,1,.18,2.38s.25,3.16.38,5.27.24,4.5.37,7.15.22,5.26.28,7.84.08,5,.05,7.33a57.58,57.58,0,0,1-.33,5.79,9.36,9.36,0,0,1-3.27,6.44,16.54,16.54,0,0,1-6.68,3.32,28.48,28.48,0,0,1-8.26.79,45.47,45.47,0,0,1-8.12-1,15.67,15.67,0,0,1-6.35-2.9,9.61,9.61,0,0,1-3.36-6.16,147.08,147.08,0,0,1-2.81-25.59,114.35,114.35,0,0,1,1.22-19.14q1.22-7,8.31-8.78a42.6,42.6,0,0,1,8.68-1.3,31.5,31.5,0,0,1,8.69.84,12,12,0,0,1,4.9,2.47,14,14,0,0,1,3.27,4.11,21.11,21.11,0,0,1,1.91,5.23A44.22,44.22,0,0,1,196.23,215.85ZM170.64,245a7,7,0,0,0,1.73,3.64,9.51,9.51,0,0,0,3.22,2.34,10.57,10.57,0,0,0,3.92.93,7.72,7.72,0,0,0,3.78-.75,6.5,6.5,0,0,0,2.8-2.66,8.5,8.5,0,0,0,1-4.71q-.47-12-.6-19.24t-.61-11.11q-.47-3.91-1.49-5.37a5.11,5.11,0,0,0-3.27-1.91,15.22,15.22,0,0,0-6.91.09,5.35,5.35,0,0,0-4,3.18,14.89,14.89,0,0,0-1,5.6q0,5.51-.05,9.15t0,6.07q0,2.43.09,4.11c.06,1.12.15,2.18.28,3.17s.26,2.06.42,3.18S170.33,243.24,170.64,245Z"/><path d="M239.18,203.34q6.81.27,12.37.84a26.21,26.21,0,0,1,9.43,2.56,13.32,13.32,0,0,1,5.89,6.07q2,4.06,1.63,11.44c-.13,3-1,5.18-2.52,6.59a13.68,13.68,0,0,1-6.63,2.94,8.26,8.26,0,0,1,.65.51l.47.42a6.82,6.82,0,0,1,2.15,3.55,23.21,23.21,0,0,1,.79,5,40,40,0,0,1-.09,5.37c-.16,1.77-.33,3.25-.52,4.44a8.66,8.66,0,0,1-2,4.06,6.07,6.07,0,0,1-4.48,2.1c-.69,0-1.51,0-2.47.05l-3,.09c-1,0-2,0-3,0h-2.48a3.9,3.9,0,0,0-2,.24,3.38,3.38,0,0,0-1,.75,8.44,8.44,0,0,0-.7.88,1.85,1.85,0,0,1-1.17.66,11.59,11.59,0,0,1-3.27.46,7.57,7.57,0,0,1-3.27-.74A4.07,4.07,0,0,1,233,261a3.84,3.84,0,0,1-.7-2,50.27,50.27,0,0,1-.51-5q-.24-3.45-.56-9.95t-.85-16.57q-.51-10.08-1.35-25a10.08,10.08,0,0,1,.23-2.95,2.5,2.5,0,0,1,1.92-1.82,14.15,14.15,0,0,1,3.78-.74,3.05,3.05,0,0,1,2.15.74,4.39,4.39,0,0,1,1.16,2.15C238.49,200.81,238.8,202,239.18,203.34Zm1.68,23.15a2.63,2.63,0,0,0,1.87,2.29,8.58,8.58,0,0,0,3.64.28,20.56,20.56,0,0,0,4.29-1,35.12,35.12,0,0,0,3.83-1.49,3.6,3.6,0,0,0,2.34-3.09,51.5,51.5,0,0,0,.23-5.41,5.86,5.86,0,0,0-1.4-3.88,8.37,8.37,0,0,0-4.58-2.24,40.7,40.7,0,0,0-9.19-.51,2.46,2.46,0,0,0-1.5.47,2.43,2.43,0,0,0-.46,1.49c0,.31,0,1,0,2.15s.1,2.35.19,3.69.2,2.69.33,4.06S240.73,225.75,240.86,226.49Zm11.21,24.65a2.53,2.53,0,0,0,2.24-2.52c.12-1.49.2-2.7.23-3.64a12.27,12.27,0,0,0-.09-2.24,2.14,2.14,0,0,0-.61-1.26,3.89,3.89,0,0,0-1.21-.7,32,32,0,0,0-4.67-1.12,13.68,13.68,0,0,0-4.77.09,4.47,4.47,0,0,0-2.19.84,2.58,2.58,0,0,0-.61,2,39,39,0,0,0,.14,5.33,6.93,6.93,0,0,0,.84,2.8,2.42,2.42,0,0,0,1.54,1.12,12.08,12.08,0,0,0,2.24.18c.13,0,.47,0,1-.09l1.92-.19c.71-.06,1.43-.14,2.14-.23A14.61,14.61,0,0,0,252.07,251.14Z"/><path d="M307.9,254.32a7.84,7.84,0,0,1,.8,3.13,5.06,5.06,0,0,1-1,3,3.5,3.5,0,0,1-2.52,1.45,23.07,23.07,0,0,1-3.27.23c-.94,0-2.24,0-3.92-.09l-5.19-.19c-1.77-.06-3.48-.15-5.13-.28s-2.94-.24-3.88-.37a12,12,0,0,1-1.72-.37,13.22,13.22,0,0,1-2-.75,8.55,8.55,0,0,1-1.82-1.17,4,4,0,0,1-1.21-1.73,18.88,18.88,0,0,1-1.17-5.51q-.42-3.91-.65-9t-.33-10.64c-.06-3.7-.09-7.21-.09-10.51s0-6.16,0-8.59.07-4,.13-4.85a14,14,0,0,1,1.83-6.87,8.21,8.21,0,0,1,4.62-3.22,27.77,27.77,0,0,1,7.66-1c3,0,6.69-.11,10.92-.23a13.39,13.39,0,0,1,3.27.19,2.58,2.58,0,0,1,2,1.86,6.18,6.18,0,0,1,.14,4,4.78,4.78,0,0,1-2.29,2.89,14,14,0,0,1-5,1.5l-5,.51a12.72,12.72,0,0,0-3.83.93,2.9,2.9,0,0,0-1.63,2.76V223q0,3.36.05,6.16c0,1.87.08,3.08.14,3.64a3.07,3.07,0,0,0,1.59,2.62,8.11,8.11,0,0,0,3.31.88,34.72,34.72,0,0,0,4.11,0,20.55,20.55,0,0,1,4,.19,5.66,5.66,0,0,1,2.95,1.26,3.82,3.82,0,0,1,.93,3.31c-.13,2.18-.56,3.6-1.31,4.25a4.47,4.47,0,0,1-3,1,42.35,42.35,0,0,1-4.53-.28,16.15,16.15,0,0,0-5.79.56,3.51,3.51,0,0,0-1.87,1,2.86,2.86,0,0,0-.37,1.92,3.58,3.58,0,0,0,.6,2,2.78,2.78,0,0,0,1.83.84,24.83,24.83,0,0,0,6.35.28c1.92-.19,3.64-.33,5.13-.42a15.46,15.46,0,0,1,3.78.14A3.3,3.3,0,0,1,307.9,254.32Z"/><path class="cls-1" d="M115.16,224.77a26.68,26.68,0,0,0-1.35-2.67c-.82-1.38-1.66-2.76-2.57-4.08q-4.06-5.85-8.18-11.66a6.44,6.44,0,0,0-4.89-3,61.24,61.24,0,0,0-7.9,0c-2.53.16-4.11,2.91-3.53,5.68a10.11,10.11,0,0,0,2,4c2.87,3.83,5.77,7.62,8.67,11.42,1.18,1.55,2.38,3.08,3.74,4.83-1.08,1.77-2,3.44-3.09,5-4,6-8,12-11.94,18a17.65,17.65,0,0,0-1.67,3,4.36,4.36,0,0,0,2,5.76,6.76,6.76,0,0,0,2.64.59c1.68,0,3.36-.23,5-.13,2.68.17,4.6-1.09,6.09-3.47s3-4.75,4.51-7.09c3.93-6.06,6.93-12.75,10.29-19.21A7.68,7.68,0,0,0,115.16,224.77Z"/><path class="cls-1" d="M88.93,230.38a5.91,5.91,0,0,0,.19-4.24,9,9,0,0,0-1.65-3,154.67,154.67,0,0,1-11.68-14,14.51,14.51,0,0,0-2.24-2.26,4.5,4.5,0,0,0-3.24-1.07c-1.68.11-3.36.09-5,.34a17.14,17.14,0,0,0-4.44,1.18c-2.25,1-2.84,3.63-1.47,5.86a31.74,31.74,0,0,0,2.35,3.26c4.12,5.09,8,10.46,12.68,15.25-1.11,1.64-2.14,3.19-3.21,4.69-4.13,5.79-8.29,11.56-12.41,17.36a15.07,15.07,0,0,0-1.69,3,3.76,3.76,0,0,0,2,5.16,3.94,3.94,0,0,0,1,.28c1.87.14,3.73.36,5.59.34a7,7,0,0,0,6.21-3.67c5-8.14,10.08-16.23,15.08-24.38A25.43,25.43,0,0,0,88.93,230.38Z"/><path class="cls-1" d="M319.59,224.77a26.68,26.68,0,0,1,1.35-2.67c.82-1.38,1.66-2.76,2.57-4.08q4.07-5.85,8.18-11.66a6.44,6.44,0,0,1,4.89-3,61.24,61.24,0,0,1,7.9,0c2.53.16,4.11,2.91,3.54,5.68a10.12,10.12,0,0,1-2,4c-2.87,3.83-5.77,7.62-8.67,11.42-1.18,1.55-2.38,3.08-3.74,4.83,1.08,1.77,2,3.44,3.09,5,4,6,8,12,11.94,18a17.65,17.65,0,0,1,1.67,3,4.36,4.36,0,0,1-2,5.76,6.72,6.72,0,0,1-2.64.59c-1.68,0-3.36-.23-5-.13-2.68.17-4.6-1.09-6.09-3.47s-3-4.75-4.51-7.09c-3.93-6.06-6.93-12.75-10.29-19.21A7.71,7.71,0,0,1,319.59,224.77Z"/><path class="cls-1" d="M345.82,230.38a5.91,5.91,0,0,1-.19-4.24,9,9,0,0,1,1.65-3,154.67,154.67,0,0,0,11.68-14,14.51,14.51,0,0,1,2.24-2.26,4.5,4.5,0,0,1,3.24-1.07c1.68.11,3.36.09,5,.34a17.14,17.14,0,0,1,4.44,1.18c2.25,1,2.84,3.63,1.47,5.86a31.74,31.74,0,0,1-2.35,3.26c-4.12,5.09-8,10.46-12.68,15.25,1.11,1.64,2.14,3.19,3.21,4.69,4.13,5.79,8.29,11.56,12.41,17.36a15.63,15.63,0,0,1,1.7,3,3.78,3.78,0,0,1-2.06,5.16,3.82,3.82,0,0,1-1,.28c-1.86.14-3.73.36-5.59.34a7,7,0,0,1-6.21-3.67c-5-8.14-10.08-16.23-15.08-24.38A25.43,25.43,0,0,1,345.82,230.38Z"/><path d="M138.75,342.82,140,343a5.21,5.21,0,0,1,1.35.38,2.43,2.43,0,0,1,1.08.88,2.4,2.4,0,0,1,.32,1.64,2.19,2.19,0,0,1-1.07,1.87,5.49,5.49,0,0,1-2.38.65c-1.81,0-3.24,0-4.3.09s-1.86.1-2.42.1a5.66,5.66,0,0,1-1.26-.1,3.17,3.17,0,0,1-.8-.28,2.82,2.82,0,0,1-1.21-1.21,2.35,2.35,0,0,1-.24-1.5,2.69,2.69,0,0,1,.75-1.35,3.1,3.1,0,0,1,1.73-.79c.75-.13,1.15-.33,1.21-.61a5.76,5.76,0,0,0,.1-1.17v-9.15q0-3.92-.05-7.94c0-2.67-.11-5.6-.23-8.77s-.28-7-.47-11.58c0-.5-.08-.8-.23-.89a2.3,2.3,0,0,0-1-.14c-4.8.19-8.38.34-10.74.47s-4,.25-5,.37-1.49.27-1.49.42v.8q-.09,5,0,9.57c0,3,.11,6,.24,9s.32,5.9.6,8.83.64,5.94,1.08,9.05c.12.75.47,1.12,1,1.12a3,3,0,0,1,1.77.7,2.87,2.87,0,0,1,.84,1.36,2.72,2.72,0,0,1-.09,1.54,2.32,2.32,0,0,1-1.12,1.26,7,7,0,0,1-1.92.47,28.23,28.23,0,0,1-2.89.23,27.42,27.42,0,0,1-2.9,0,3.48,3.48,0,0,1-1.82-.46,3.1,3.1,0,0,1-.79-1,2.64,2.64,0,0,1-.33-1.27,2.1,2.1,0,0,1,.51-1.3,4.86,4.86,0,0,1,1.64-1.22.68.68,0,0,0,.46-.7,5.18,5.18,0,0,0-.09-1q-.84-5-1.31-10.74t-.65-11.53q-.18-5.83-.09-11.44c.06-3.73.18-7.19.37-10.36.06-1.62.16-2.9.28-3.83s.2-1.68.23-2.24a2.66,2.66,0,0,0-.14-1.26,2.34,2.34,0,0,0-.84-.89,2.09,2.09,0,0,1-1-1.4,2.93,2.93,0,0,1,.14-1.54,2.56,2.56,0,0,1,1-1.17,2.46,2.46,0,0,1,1.64-.37l3.83.28c.93.06,1.65.12,2.15.19a4.51,4.51,0,0,1,1.07.23,1.86,1.86,0,0,1,.61.42,2.34,2.34,0,0,1,1.07,2.52,2.47,2.47,0,0,1-1.73,2,5.26,5.26,0,0,1-1.4.28.66.66,0,0,0-.65.51,8,8,0,0,0-.28,2c-.07,1-.13,2.47-.19,4.53q-.09,1,.93,1,6.91-.18,10.46-.33c2.37-.09,4-.2,5-.32s1.48-.27,1.54-.42a2.08,2.08,0,0,0,.09-.7c-.06-1.5-.11-2.65-.14-3.46a15.73,15.73,0,0,0-.14-1.77c-.06-.37-.15-.59-.28-.65a1.17,1.17,0,0,0-.56-.1,10.38,10.38,0,0,1-1.77-.18c-.69-.13-1.19-.69-1.5-1.69a2.16,2.16,0,0,1,.33-2,3.28,3.28,0,0,1,2.19-1.31l1.64-.23,2-.28c.68-.09,1.37-.16,2-.19a9.53,9.53,0,0,1,1.68.05,2.72,2.72,0,0,1,1.45.84,2.58,2.58,0,0,1,.7,1.49,1.94,1.94,0,0,1-1,2.2l-.8.42a.87.87,0,0,0-.46.65,11,11,0,0,0,0,3c.12,1.43.28,3.67.46,6.72s.36,7.15.52,12.28.23,11.66.23,19.56q0,4.11,0,6.21c0,1.41-.05,2.43-.05,3.09a6.34,6.34,0,0,0,.05,1.16A.78.78,0,0,0,138.75,342.82Z"/><path d="M160,334.69a.71.71,0,0,0-.33.38l-.14.56c-.37,2.24-.61,3.89-.7,4.95a8,8,0,0,0,0,2.14c.09.38.26.55.51.52a2.72,2.72,0,0,1,.84,0,2.61,2.61,0,0,1,1.64,1.08,2.26,2.26,0,0,1,.37,1.63,3.23,3.23,0,0,1-.79,1.59,2.89,2.89,0,0,1-1.78.93,4.64,4.64,0,0,1-1,.1h-4.11c-.75,0-1.36,0-1.82-.05a7.85,7.85,0,0,1-1.12-.14c-.28-.06-.55-.12-.8-.19a2.31,2.31,0,0,1-1.4-1.07,2.65,2.65,0,0,1,.56-3.32,3.53,3.53,0,0,1,2.34-.65c.56,0,.9-.09,1-.28a2.48,2.48,0,0,0,.28-1,244.08,244.08,0,0,1,4.77-28.06,112.16,112.16,0,0,1,6.25-19.56q3.36-7.47,6.91-9.76t6.91,1.4q3.36,3.69,6.17,13.82t4.57,27.5q.47,4.48.7,7.24c.16,1.84.31,3.28.47,4.34a15.62,15.62,0,0,0,.42,2.2,1.14,1.14,0,0,0,.47.74,1.24,1.24,0,0,0,.79.05,4.39,4.39,0,0,1,1.26,0,2.55,2.55,0,0,1,1.68.89,2.93,2.93,0,0,1,.65,1.54,2.54,2.54,0,0,1-.37,1.63,2.33,2.33,0,0,1-1.49,1.07,8.12,8.12,0,0,1-1.54.19c-.84.06-1.78.14-2.81.24l-2.8.23c-.84.06-1.35.09-1.54.09a3.53,3.53,0,0,1-2.15-.42,2.54,2.54,0,0,1-1.12-1.3,2.47,2.47,0,0,1,.05-1.69,3.22,3.22,0,0,1,2.76-1.91c.49,0,.68-.31.56-.93-.19-1.87-.35-3.3-.47-4.3s-.23-1.73-.33-2.19-.2-.75-.33-.84a.87.87,0,0,0-.56-.14l-1.91,0-4.29.1c-1.72,0-3.57.07-5.56.14l-5.51.18c-1.68.07-3.11.11-4.29.14A9,9,0,0,0,160,334.69Zm23.53-7c-.06-.37-.19-1.46-.38-3.27s-.45-3.95-.79-6.44-.76-5.2-1.26-8.13-1.07-5.72-1.73-8.4a68.15,68.15,0,0,0-2.14-7.19,12.88,12.88,0,0,0-2.57-4.58c-.75-.74-1.61-.46-2.57.85a27,27,0,0,0-3,5.74q-1.53,3.78-3,8.73t-2.61,9.62q-1.17,4.67-1.91,8.45a48,48,0,0,0-.85,5.37c0,.5.19.76.56.79a11.64,11.64,0,0,0,1.78-.05q7.84-.27,12-.37l6.07-.14a6.24,6.24,0,0,0,2.11-.23A1,1,0,0,0,183.57,327.69Z"/><path d="M205.51,290.53a7,7,0,0,0-.88-.24,5.88,5.88,0,0,1-1.22-.42,3.42,3.42,0,0,1-1.07-.79,2.09,2.09,0,0,1-.47-1.45,2.32,2.32,0,0,1,.79-1.87,4.38,4.38,0,0,1,2.2-.84,25.52,25.52,0,0,1,3.22-.18H212a3.92,3.92,0,0,1,1.72.56,2.18,2.18,0,0,1,1.08,2.14,2.14,2.14,0,0,1-1.22,2.15c-.81.38-1.52.69-2.15.94,0,.12,0,.48,0,1.07s0,1.21,0,1.87,0,1.26,0,1.82a3.58,3.58,0,0,0,.14,1c.19.07.65-.21,1.4-.84s1.69-1.36,2.85-2.24a39.09,39.09,0,0,1,4-2.61,17.82,17.82,0,0,1,4.71-1.92,14.22,14.22,0,0,1,5.09-.28,10.51,10.51,0,0,1,5.14,2.29,15,15,0,0,1,3.92,4.81,17.51,17.51,0,0,1,1.77,5.79,18.56,18.56,0,0,1-2.71,11.95,17.29,17.29,0,0,1-4.38,4.67,17,17,0,0,1-6.35,2.85,21.38,21.38,0,0,1-4.49.61,28,28,0,0,1-4.06-.19c-1.28-.16-2.46-.34-3.55-.56l-2.94-.61q-.84-.09-.84.66c-.06,2.05,0,4.28,0,6.67s.19,4.64.28,6.73.2,3.86.33,5.32.18,2.32.18,2.57a2.17,2.17,0,0,0,.24.79.57.57,0,0,0,.46.28l.8.09a9.74,9.74,0,0,1,1.21.24,2.77,2.77,0,0,1,1.35.93,2.32,2.32,0,0,1,.52,1.45,2.82,2.82,0,0,1-.42,1.49,2.64,2.64,0,0,1-1.36,1.08,3.52,3.52,0,0,1-1.54.32,22.42,22.42,0,0,1-2.42,0l-2.81-.19-2.75-.19a3,3,0,0,1-1.87-.79,2.79,2.79,0,0,1-.89-1.59,2.53,2.53,0,0,1,.38-1.73,3,3,0,0,1,1.91-1.21c.56-.12,1-.22,1.17-.28s.31-.48.28-1.26-.13-2.09-.28-3.92-.3-4.61-.42-8.31-.19-8.53-.19-14.48.16-13.43.47-22.45a5.27,5.27,0,0,1,.05-.84A1.33,1.33,0,0,0,205.51,290.53Zm6.35,23.71q2.8.66,5.56,1.12a23.56,23.56,0,0,0,5.65.28,11.91,11.91,0,0,0,6.77-2.47,12.34,12.34,0,0,0,4.71-11.67,10.61,10.61,0,0,0-3-6,5.19,5.19,0,0,0-4.3-1.68,13.49,13.49,0,0,0-5.14,1.54,26.48,26.48,0,0,0-5,3.46,31.66,31.66,0,0,0-4,4.06,14.74,14.74,0,0,0-1.45,2.1,5.45,5.45,0,0,0-.56,1.54,6.93,6.93,0,0,0-.09,1.68c0,.63,0,1.5,0,2.62s0,2.1,0,2.57A.92.92,0,0,0,211.86,314.24Z"/><path d="M247.35,290.53a7.79,7.79,0,0,0-.89-.24,5.61,5.61,0,0,1-1.21-.42,3.35,3.35,0,0,1-1.08-.79,2.09,2.09,0,0,1-.47-1.45,2.29,2.29,0,0,1,.8-1.87,4.38,4.38,0,0,1,2.19-.84,25.63,25.63,0,0,1,3.22-.18h3.88a4,4,0,0,1,1.73.56,2.19,2.19,0,0,1,1.07,2.14,2.13,2.13,0,0,1-1.21,2.15c-.81.38-1.53.69-2.15.94,0,.12,0,.48,0,1.07s0,1.21,0,1.87,0,1.26,0,1.82a3.58,3.58,0,0,0,.14,1c.19.07.66-.21,1.4-.84s1.7-1.36,2.85-2.24a40.24,40.24,0,0,1,4-2.61,17.75,17.75,0,0,1,4.72-1.92,14.15,14.15,0,0,1,5.08-.28,10.47,10.47,0,0,1,5.14,2.29,14.88,14.88,0,0,1,3.92,4.81,17.3,17.3,0,0,1,1.78,5.79,18.56,18.56,0,0,1-2.71,11.95,17.33,17.33,0,0,1-4.39,4.67,16.9,16.9,0,0,1-6.35,2.85,21.38,21.38,0,0,1-4.48.61,27.86,27.86,0,0,1-4.06-.19c-1.28-.16-2.46-.34-3.55-.56L253.7,320q-.84-.09-.84.66c-.07,2.05-.05,4.28,0,6.67s.19,4.64.28,6.73.2,3.86.33,5.32.19,2.32.19,2.57a2.43,2.43,0,0,0,.23.79.59.59,0,0,0,.47.28l.79.09a9.74,9.74,0,0,1,1.21.24,2.85,2.85,0,0,1,1.36.93,2.31,2.31,0,0,1,.51,1.45,2.82,2.82,0,0,1-.42,1.49,2.66,2.66,0,0,1-1.35,1.08,3.55,3.55,0,0,1-1.54.32,22.57,22.57,0,0,1-2.43,0l-2.8-.19c-1-.06-1.89-.12-2.76-.19a3,3,0,0,1-1.86-.79,2.73,2.73,0,0,1-.89-1.59,2.52,2.52,0,0,1,.37-1.73,3,3,0,0,1,1.92-1.21c.56-.12.94-.22,1.16-.28s.31-.48.28-1.26-.12-2.09-.28-3.92-.29-4.61-.42-8.31-.18-8.53-.18-14.48.15-13.43.46-22.45a6.78,6.78,0,0,1,.05-.84A1.38,1.38,0,0,0,247.35,290.53Zm6.35,23.71q2.79.66,5.55,1.12a23.58,23.58,0,0,0,5.65.28,11.88,11.88,0,0,0,6.77-2.47,12.38,12.38,0,0,0,4.72-11.67,10.63,10.63,0,0,0-3-6,5.18,5.18,0,0,0-4.3-1.68,13.39,13.39,0,0,0-5.13,1.54,26.23,26.23,0,0,0-5.05,3.46,33,33,0,0,0-4,4.06,14.74,14.74,0,0,0-1.45,2.1,5.77,5.77,0,0,0-.56,1.54,7.48,7.48,0,0,0-.09,1.68c0,.63.05,1.5.05,2.62s0,2.1,0,2.57A.92.92,0,0,0,253.7,314.24Z"/><path d="M315.42,292.3l-1.07-.23a6.49,6.49,0,0,1-1.41-.47,3.31,3.31,0,0,1-1.16-.89,1.94,1.94,0,0,1-.38-1.49,2.07,2.07,0,0,1,1.45-2,16.55,16.55,0,0,1,2.94-.56c1.25-.13,2.4-.25,3.46-.38a12.06,12.06,0,0,1,2.8,0,4.28,4.28,0,0,1,2,.65,2.4,2.4,0,0,1,.93,1.73,2,2,0,0,1-.28,1.4,3.09,3.09,0,0,1-.84.88,5.59,5.59,0,0,1-1,.57,7.5,7.5,0,0,1-.94.32c.25,3.68.55,7.5.89,11.49s.54,7.93.61,11.86a96.4,96.4,0,0,1-.47,11.3,40.79,40.79,0,0,1-2.19,9.85,21.31,21.31,0,0,1-4.67,7.56,16.91,16.91,0,0,1-7.89,4.44,10.15,10.15,0,0,1-5.93-.28,9.33,9.33,0,0,1-4.53-3.65,11.07,11.07,0,0,1-1.54-2.84c-.28-.84-.52-1.54-.7-2.11a7.35,7.35,0,0,0-.56-1.3c-.19-.31-.56-.44-1.12-.38a1.56,1.56,0,0,1-.66-.18,2.93,2.93,0,0,1-1.31-1.12,2.35,2.35,0,0,1-.37-1.54,2.45,2.45,0,0,1,.84-1.5,4.35,4.35,0,0,1,2.15-1c1.49-.25,2.68-.43,3.55-.56s1.55-.2,2.05-.23a6.25,6.25,0,0,1,1.08,0c.21,0,.45.08.7.14a2.33,2.33,0,0,1,1.77,2.29,2.52,2.52,0,0,1-1.4,2.38c-.25.12-.51.25-.79.37s-.58.25-.89.37q.38,3.36,2,4.67a4.81,4.81,0,0,0,3.64,1.12,8.7,8.7,0,0,0,4.2-1.68,12.19,12.19,0,0,0,3.55-3.83,20.4,20.4,0,0,0,2.48-7.19,74.16,74.16,0,0,0,1-9.29c.16-3.2.17-6.32.05-9.33s-.28-5.5-.47-7.43c-.31,0-.49.11-.56.33a2,2,0,0,1-.28.61,25.6,25.6,0,0,1-5.83,7.79,13.67,13.67,0,0,1-6.59,3.32,10.67,10.67,0,0,1-6.49-.94,14.1,14.1,0,0,1-5.46-4.85,25,25,0,0,1-3.55-8.59,39.38,39.38,0,0,1-.65-12.05,1.36,1.36,0,0,0-.93-1.68,2.07,2.07,0,0,1-1.26-1.26,3.05,3.05,0,0,1-.15-1.73,2.74,2.74,0,0,1,.85-1.44,2.06,2.06,0,0,1,1.68-.52,26.34,26.34,0,0,0,5.46.33,7.68,7.68,0,0,1,3.78.51,2.44,2.44,0,0,1,1.31,2.24,2.58,2.58,0,0,1-1.5,2.34,3.12,3.12,0,0,1-1.4.37h-1.16a1.58,1.58,0,0,0-.84.19q-.33.18-.33.84a42.31,42.31,0,0,0,.09,4.71,44.83,44.83,0,0,0,.7,5.19,31.89,31.89,0,0,0,1.4,5,12.6,12.6,0,0,0,2.29,4,5.83,5.83,0,0,0,3.22,2,5.76,5.76,0,0,0,3.5-.47,11.44,11.44,0,0,0,3.41-2.43,20.05,20.05,0,0,0,2.94-3.78,40,40,0,0,0,2.71-5.79C314,296.47,314.73,294.42,315.42,292.3Z"/><circle class="cls-1" cx="85.18" cy="312.4" r="9.7"/><circle class="cls-1" cx="346.42" cy="312.4" r="9.7"/></svg>