<?xml version="1.0" encoding="UTF-8" standalone="no"?>
<!-- Created with Inkscape (http://www.inkscape.org/) -->
<svg xmlns:dc="http://purl.org/dc/elements/1.1/" xmlns:cc="http://creativecommons.org/ns#" xmlns:rdf="http://www.w3.org/1999/02/22-rdf-syntax-ns#" xmlns:svg="http://www.w3.org/2000/svg" xmlns="http://www.w3.org/2000/svg" xmlns:sodipodi="http://sodipodi.sourceforge.net/DTD/sodipodi-0.dtd" xmlns:inkscape="http://www.inkscape.org/namespaces/inkscape" viewBox="0 0 67.528734 113.62307" id="svg2" version="1.1" inkscape:version="0.91 r13725" sodipodi:docname="llama.svg">
  <title id="title4202">llama-lineart</title>
  <defs id="defs4"/>
  <sodipodi:namedview id="base" pagecolor="#ffffff" bordercolor="#666666" borderopacity="1.0" inkscape:pageopacity="0.0" inkscape:pageshadow="2" inkscape:zoom="11.2" inkscape:cx="71.680886" inkscape:cy="79.011048" inkscape:document-units="mm" inkscape:current-layer="layer1" showgrid="false" inkscape:window-width="1545" inkscape:window-height="1260" inkscape:window-x="679" inkscape:window-y="71" inkscape:window-maximized="0" fit-margin-top="1" fit-margin-right="1" fit-margin-bottom="1" fit-margin-left="1"/>
  <metadata id="metadata7">
    <rdf:RDF>
      <cc:Work rdf:about="">
        <dc:format>image/svg+xml</dc:format>
        <dc:type rdf:resource="http://purl.org/dc/dcmitype/StillImage"/>
        <dc:title>llama-lineart</dc:title>
        <cc:license rdf:resource="http://creativecommons.org/publicdomain/zero/1.0/"/>
        <dc:date>2015-02-01</dc:date>
        <dc:creator>
          <cc:Agent>
            <dc:title>Frrank Tremmel</dc:title>
          </cc:Agent>
        </dc:creator>
        <dc:subject>
          <rdf:Bag>
            <rdf:li>llama</rdf:li>
            <rdf:li>animal</rdf:li>
            <rdf:li>lineart</rdf:li>
            <rdf:li>lama</rdf:li>
            <rdf:li>tier</rdf:li>
            <rdf:li>camel</rdf:li>
            <rdf:li>kamel</rdf:li>
            <rdf:li/>
          </rdf:Bag>
        </dc:subject>
        <dc:description>lineart llama</dc:description>
      </cc:Work>
      <cc:License rdf:about="http://creativecommons.org/publicdomain/zero/1.0/">
        <cc:permits rdf:resource="http://creativecommons.org/ns#Reproduction"/>
        <cc:permits rdf:resource="http://creativecommons.org/ns#Distribution"/>
        <cc:permits rdf:resource="http://creativecommons.org/ns#DerivativeWorks"/>
      </cc:License>
    </rdf:RDF>
  </metadata>
  <g inkscape:label="Ebene 1" inkscape:groupmode="layer" id="layer1" transform="translate(-66.018129,-106.6618)">
    <ellipse style="color:#000000;display:inline;overflow:visible;visibility:visible;opacity:1;fill:#000000;fill-opacity:1;fill-rule:nonzero;stroke:none;stroke-width:0.03543307;stroke-linecap:round;stroke-linejoin:round;stroke-miterlimit:4;stroke-dasharray:none;stroke-dashoffset:0;stroke-opacity:1;marker:none;enable-background:accumulate" id="path4870" cx="68.130356" cy="160.5031" rx="1.0714285" ry="1.5178571" transform="matrix(0.9226136,-0.38572548,0.38572548,0.9226136,0,0)"/>
    <path style="fill:#ffffff;fill-opacity:1;fill-rule:evenodd;stroke:#000000;stroke-width:1.0629921;stroke-linecap:butt;stroke-linejoin:round;stroke-miterlimit:4;stroke-dasharray:none;stroke-opacity:1" d="m 120.26785,150.21935 c 0,0.35714 0.46342,2.74044 0.98215,4.01786 0.4417,1.08773 2.05357,2.5 2.05357,2.5 0.78485,1.18826 1.37505,2.41546 0.98215,3.83928 -0.71429,-1.27306 -1.07143,-2.04412 -1.78572,-2.14285 l -0.44643,6.51785 -4.01786,13.21429 -4.73214,12.23214 -2.85714,11.51786 c -1.00136,2.70787 -0.0679,3.45125 0.71428,4.82143 2.14853,0.12695 5.08136,1.97959 3.03572,3.30357 l -2.58929,-0.80358 1.96429,1.69643 c -1.99405,1.0446 -3.9881,-0.35689 -5.98215,-0.53571 l -1.875,-0.98214 -0.625,-2.58929 -0.0893,-0.89286 c -0.68452,1.5793 -1.36905,0.72202 -2.05357,0.80358 0.38369,-0.77381 -0.0577,-1.54762 1.60714,-2.32144 -0.65979,-0.65707 -1.18659,-0.88771 -2.32143,-0.35714 0.80357,-1.66084 1.60714,-1.76244 2.41071,-2.32143 0,0 0.31817,-1.66195 0.80358,-2.32143 0.41637,-0.56569 1.69643,-1.24999 1.69643,-1.24999 0.64606,-1.89241 1.41141,-3.54623 1.60714,-6.33929 l 5.71428,-14.82143 z" id="path4149" inkscape:connector-curvature="0" sodipodi:nodetypes="cscccccccccccccccccccscccc"/>
    <path style="fill:#ffffff;fill-opacity:1;fill-rule:evenodd;stroke:#000000;stroke-width:1.0629921;stroke-linecap:butt;stroke-linejoin:round;stroke-miterlimit:4;stroke-dasharray:none;stroke-opacity:1" d="m 90.982143,169.50506 -1.160715,6.875 -3.035714,4.01786 c -1.089963,0.91189 -2.581861,1.23915 -1.160714,5.80357 1.952572,1.25269 2.574273,4.50169 3.660714,7.05357 l 0.803572,4.55357 c 0.557202,1.44846 1.170545,2.56006 1.964285,2.58929 l -0.08929,1.60714 c 1.729409,3.4041 3.660397,3.78452 5.625,3.66071 l -1.339286,-2.76785 c 1.155773,0.81469 1.821202,2.73265 3.839285,1.60714 -1.457116,-3.49793 -1.765276,-3.166 -2.589285,-4.55357 0.638156,-0.94906 -0.243343,-1.59419 -0.714286,-2.32143 -2.292599,-2.09595 -2.692448,-4.4623 -3.392857,-6.78571 -1.064807,-2.91714 -2.326207,-5.94661 -1.785714,-7.94643 0.43227,-0.65948 0.378631,-1.48093 2.142857,-1.69643 4.693943,-2.13649 6.211277,-4.20021 6.428575,-5.89286 l 0.17857,-4.55357 z" id="path4151" inkscape:connector-curvature="0" sodipodi:nodetypes="ccccccccccccccccccc"/>
    <path style="fill:#ffffff;fill-opacity:1;fill-rule:evenodd;stroke:#000000;stroke-width:1.0629921;stroke-linecap:butt;stroke-linejoin:round;stroke-miterlimit:4;stroke-dasharray:none;stroke-opacity:1" d="m 101.25,148.07649 -3.035714,0.17857 C 95.476191,147.24316 95.732761,145.35781 90,145.21935 c -2.906628,0.36635 -4.359726,1.37928 -6.292399,2.19515 L 78.75,149.68363 c -1.321241,0.64281 -2.303475,1.03137 -3.297226,1.42857 -1.5185,0.92109 -1.345404,1.91583 -1.94448,2.87695 -0.866856,2.09122 -0.427498,3.0123 -0.672815,4.17121 -0.199684,1.04148 -0.03262,1.67037 0.441012,1.95438 l 1.366366,-1.32397 c 0.142958,1.56564 -1.378682,5.93336 -4.550013,9.69609 l 2.218682,-0.4834 -1.787573,2.5 1.618904,-0.46269 -0.662913,2.11223 c 1.350417,-1.00541 2.544835,-0.73342 1.734342,0.38777 -0.765601,0.76149 -1.136303,1.88498 -0.892857,3.57143 0.391745,1.84524 0.71605,3.69048 1.428571,5.53572 -0.269107,0.9982 -0.675401,3.51044 -1.071428,4.28571 -0.680902,1.33131 2.861159,2.84265 3.214285,8.21429 0.378667,2.29586 1.222181,4.24683 -0.892857,8.39285 -0.545896,1.73316 -0.765683,3.43371 0.357143,5 0.427618,0.8381 1.014691,0.87893 1.607143,0.89286 0.753602,3.01383 2.263044,3.93457 4.107143,3.92857 l -0.357143,-1.78571 c 1.773817,1.28231 3.621673,1.55608 4.464286,1.07143 -0.420305,-1.61707 -0.648095,-3.20751 -1.785715,-4.82143 -1.305267,-1.81852 -2.852375,-3.22246 -3.035714,-6.96429 -1.709938,-3.82998 -0.131263,-12.29454 -0.925354,-13.77073 0.842458,-3.2798 1.272367,-4.82317 6.199556,-11.90115 2.823743,1.4716 3.245259,-0.19452 4.725798,-0.93526 l -1.071429,1.60714 c 1.15666,0.27864 2.331241,0.37807 3.571429,-0.17857 l -1.103925,1.88135 c 1.616719,-0.0948 2.942037,-0.96658 4.318211,-1.70278 l -1.25,1.60715 c 1.997907,-0.124 5.572731,-0.62703 5.703461,-1.36545 1.39432,2.25677 6.90407,7.13637 7.65783,12.59471 0,0 -0.61716,1.37752 -0.50415,2.16359 0.1555,1.08159 1.51244,2.54148 1.51244,2.54148 1.13095,4.10714 4.20208,7.73903 3.48756,12.63709 -1.10353,1.51405 -0.88756,4.13974 -1.07143,6.42858 -0.1666,0.62084 0.14872,1.33231 1.75415,1.34563 0.96013,1.5735 2.22727,2.37794 4.853,3.11865 1.11507,0.56035 1.55487,0.30327 1.07142,-1.07143 l -1.78571,-2.67857 2.85714,3.03572 c 0.6431,0.30661 1.27913,0.58258 1.42857,-1.25 -1.14107,-3.47668 -2.61599,-6.59988 -5.17857,-8.57143 -0.68936,-4.4091 -0.84127,-9.30192 -2.27995,-13.03664 0.63709,-1.77908 0.52581,-2.62983 0.52581,-2.62983 -0.2348,-0.60707 -0.41065,-1.41687 -1.46014,-2.19068 -0.42295,-1.875 0.4664,-3.75 1.69642,-5.62499 0.17396,-3.3082 -0.3225,-6.23571 -0.80357,-8.83929 l 1.875,2.76785 c 0.60791,-0.61674 1.14706,-1.43979 1.51786,-2.76785 0.3231,1.83041 1.41189,2.32086 2.67857,2.5 -0.72624,-1.72619 -1.33859,-3.45238 -0.89285,-5.17857 l 2.67857,2.14285 c -1.24937,-2.19858 -3.14884,-3.9328 -2.85714,-7.23214 0.91866,2.11143 2.1288,3.97996 4.46428,4.91072 -2.18868,-2.1795 -2.79962,-4.00838 -2.85714,-5.71429 l 1.60714,1.42857 c -0.062,-3.54713 -1.27486,-6.86407 -2.5,-10.17857 -0.66029,-3.70153 -0.0357,-4.83321 0.17857,-6.78571 l 1.60714,1.25 -1.60714,-4.46429 2.32143,1.07143 -1.60714,-3.57143 1.60714,0.53571 c -1.07434,-2.08042 -2.3819,-3.92762 -2.32143,-7.14285 0.1117,-0.50317 -0.38475,-3.32164 1.42857,-4.46429 1.69083,0.56933 3.27046,1.80587 5.17858,1.07143 1.68304,-0.49646 1.41563,-1.23674 1.24999,-1.96429 l 0.89286,0.17858 c 0.43219,-0.20706 0.57929,-0.98429 0.53572,-2.14286 l -1.25,-1.96429 c 0.25883,-0.45545 0.33471,-1.09386 0.35714,-1.78571 -1.85999,-1.56237 -2.9331,-2.33786 -4.10714,-3.21429 -0.93444,-0.69879 -0.56735,-1.13728 -0.35715,-1.60714 -1.69152,-0.46115 -3.06923,-1.86372 -4.28571,-3.75 0.95238,1.76764 1.90476,2.02629 2.85714,1.78571 l 1.60714,-0.53571 L 125,116.29077 c -0.22406,-0.8659 -0.32373,-1.75668 0.625,-2.85714 0.72639,-2.37333 -0.46059,-3.27823 -1.875,-2.32143 -0.90686,0.75981 -1.6323,1.70104 -3.21429,1.78572 -0.83994,0.87085 -2.32318,-0.40266 -2.5,2.67857 l 0.0893,0.80357 -1.875,-1.07143 1.25,1.875 -3.21429,-1.51786 0.17858,1.33929 -2.23215,-1.07143 c -1.18381,-2.12172 -2.86535,-2.77086 -4.375,-3.92857 -0.71366,-0.001 -1.38078,-0.0956 -2.32142,0.35714 l -1.60715,-1.07142 c -0.85149,2.36063 0.80278,4.49002 1.42857,6.42857 0.56983,0.90556 0.19952,2.28119 2.5,2.32142 l 1.69643,-0.62499 -2.58928,3.30357 0.53571,8.21428 -3.21429,9.10714 1.07143,0.53572 -1.60714,2.32143 2.5,0.71428 -3.03571,1.96429 1.60714,0.17857 -2.85714,4.46429 z" id="path4147" inkscape:connector-curvature="0" sodipodi:nodetypes="ccccccccccccccccccccccccccccccccccccccscccccccccccsccccccccccccccccccccccccccccccccccccccccccccccccccccccccccc"/>
    <path style="fill:none;fill-rule:evenodd;stroke:#000000;stroke-width:1.0629921;stroke-linecap:round;stroke-linejoin:round;stroke-miterlimit:4;stroke-dasharray:none;stroke-opacity:1" d="m 101.70973,176.30741 c -1.14188,-0.12584 -1.45898,-4.67953 -0.94701,-4.79823 -0.25254,0.12627 -1.641501,1.57836 -1.641501,1.57836 -0.925553,-1.93149 -0.110445,-4.34401 0.441941,-6.43972" id="path4153" inkscape:connector-curvature="0" sodipodi:nodetypes="cccc"/>
    <path style="fill:none;fill-rule:evenodd;stroke:#000000;stroke-width:0.70866144;stroke-linecap:round;stroke-linejoin:round;stroke-miterlimit:4;stroke-dasharray:none;stroke-opacity:1" d="m 84.979083,161.09199 c 1.20959,1.38718 1.565457,4.26838 2.146574,6.75539 -0.496011,-0.85409 -1.368579,-2.2899 -2.020305,-2.2097 1.376771,0.98499 1.310412,3.61928 1.578363,5.8715 -0.378807,-0.93523 -0.757614,-1.78769 -1.136421,-1.89403 -0.05927,2.09888 -0.503299,2.65876 -0.883884,3.4724 0.584291,0.35776 1.030647,0.71552 0.947018,1.07328" id="path4155" inkscape:connector-curvature="0" sodipodi:nodetypes="ccccccc"/>
    <path style="fill:none;fill-rule:evenodd;stroke:#000000;stroke-width:0.70866144;stroke-linecap:round;stroke-linejoin:round;stroke-miterlimit:4;stroke-dasharray:none;stroke-opacity:1" d="m 103.66691,149.22269 c -0.6982,1.71754 -2.16655,2.99499 -4.040615,4.04061 l 3.346135,-0.69448 c -1.6471,-0.057 -5.801536,5.04931 -4.924499,4.67196 0.56665,-0.24381 3.310789,-2.2324 3.409269,-1.6415 -2.391173,1.81538 -3.166203,3.6396 -4.040614,5.3033 0.968062,-0.91578 2.756874,-3.42838 3.724934,-2.84105 -1.622571,2.06818 -3.510128,4.51829 -3.788068,6.25032 0.759263,-0.94702 2.383704,-2.08344 3.598668,-3.03046 -4.203627,4.47885 -2.664922,6.54364 -2.335978,8.7757" id="path4157" inkscape:connector-curvature="0" sodipodi:nodetypes="cccscccccc"/>
    <path style="fill:none;fill-rule:evenodd;stroke:#000000;stroke-width:0.70866144;stroke-linecap:round;stroke-linejoin:round;stroke-miterlimit:4;stroke-dasharray:none;stroke-opacity:1" d="m 113.83157,171.82486 c 0,0 1.43905,1.64549 1.70463,2.39911 0.56977,-1.52849 1.29559,-1.64328 0.63134,-5.17703 0,0 1.95717,3.40926 1.8309,3.15672 -0.40368,-0.35656 -0.91979,-8.51295 0.0631,-8.14435" id="path4159" inkscape:connector-curvature="0" sodipodi:nodetypes="ccccc"/>
    <path style="fill:none;fill-rule:evenodd;stroke:#000000;stroke-width:0.70866144;stroke-linecap:round;stroke-linejoin:round;stroke-miterlimit:4;stroke-dasharray:none;stroke-opacity:1" d="m 119.26114,161.78647 c 0.46978,-1.30955 -0.45801,-6.19839 -0.63135,-5.80838 1.20352,2.11124 2.17454,4.35533 2.20971,7.1342" id="path4161" inkscape:connector-curvature="0" sodipodi:nodetypes="ccc"/>
    <path style="fill:none;fill-rule:evenodd;stroke:#000000;stroke-width:0.70866144;stroke-linecap:round;stroke-linejoin:round;stroke-miterlimit:4;stroke-dasharray:none;stroke-opacity:1" d="m 108.03571,116.20149 c -0.41748,1.08383 0.6731,1.8743 1.51786,1.78571 0.54529,-0.0572 1.15335,-0.0757 0.80357,-1.42857 -0.46402,-2.04229 -1.86432,-2.28682 -3.03571,-2.67857" id="path4163" inkscape:connector-curvature="0" sodipodi:nodetypes="cscc"/>
    <path style="fill:#000000;fill-opacity:1;fill-rule:evenodd;stroke:#000000;stroke-width:0.70866144;stroke-linecap:round;stroke-linejoin:round;stroke-miterlimit:4;stroke-dasharray:none;stroke-opacity:1" d="m 112.14286,120.30863 c 1.96157,0.001 3.12992,1.74788 4.55357,3.66071 l -1.38617,-0.66739 c 0,0 -1.16916,0.76753 -1.85875,0.54654 -0.60123,-0.19267 -1.30444,-0.7089 -1.33929,-1.33929 -0.0274,-0.49479 0.42383,-1.12914 0.42383,-1.12914 -0.21759,-0.59746 -0.27546,-0.99439 -0.91359,-1.25541 z" id="path4165" inkscape:connector-curvature="0" sodipodi:nodetypes="cccssccc"/>
    <path style="color:#000000;font-style:normal;font-variant:normal;font-weight:normal;font-stretch:normal;font-size:medium;line-height:normal;font-family:sans-serif;text-indent:0;text-align:start;text-decoration:none;text-decoration-line:none;text-decoration-style:solid;text-decoration-color:#000000;letter-spacing:normal;word-spacing:normal;text-transform:none;direction:ltr;block-progression:tb;writing-mode:lr-tb;baseline-shift:baseline;text-anchor:start;white-space:normal;clip-rule:nonzero;display:inline;overflow:visible;visibility:visible;opacity:1;isolation:auto;mix-blend-mode:normal;color-interpolation:sRGB;color-interpolation-filters:linearRGB;solid-color:#000000;solid-opacity:1;fill:#000000;fill-opacity:1;fill-rule:evenodd;stroke:none;stroke-width:0.70866144;stroke-linecap:butt;stroke-linejoin:miter;stroke-miterlimit:4;stroke-dasharray:none;stroke-dashoffset:0;stroke-opacity:1;color-rendering:auto;image-rendering:auto;shape-rendering:auto;text-rendering:auto;enable-background:accumulate" d="m 124.13731,126.42683 c -0.64576,-0.22412 -0.85341,0.88549 -0.1865,1.17663 0.38755,0.1692 0.95683,0.0569 1.54333,0.0313 0.78653,0.32155 1.56102,0.75153 2.42837,0.3457 l 0.10351,-0.70117 c -0.60375,0.22154 -1.17634,0.49374 -2.43422,-0.34766 z" id="path4169" inkscape:connector-curvature="0" sodipodi:nodetypes="ssccccs"/>
    <path style="color:#000000;font-style:normal;font-variant:normal;font-weight:normal;font-stretch:normal;font-size:medium;line-height:normal;font-family:sans-serif;text-indent:0;text-align:start;text-decoration:none;text-decoration-line:none;text-decoration-style:solid;text-decoration-color:#000000;letter-spacing:normal;word-spacing:normal;text-transform:none;direction:ltr;block-progression:tb;writing-mode:lr-tb;baseline-shift:baseline;text-anchor:start;white-space:normal;clip-rule:nonzero;display:inline;overflow:visible;visibility:visible;opacity:1;isolation:auto;mix-blend-mode:normal;color-interpolation:sRGB;color-interpolation-filters:linearRGB;solid-color:#000000;solid-opacity:1;fill:#000000;fill-opacity:1;fill-rule:evenodd;stroke:none;stroke-width:1px;stroke-linecap:butt;stroke-linejoin:miter;stroke-miterlimit:4;stroke-dasharray:none;stroke-dashoffset:0;stroke-opacity:1;color-rendering:auto;image-rendering:auto;shape-rendering:auto;text-rendering:auto;enable-background:accumulate" d="m 126.44727,129.91602 c -2.24811,1.09542 -2.01084,0.46863 -2.6875,0.60546 -0.37466,0.0758 -0.53805,0.86195 0.2207,0.97461 1.25083,0.18573 1.99878,-0.0879 2.42446,-0.37341 0.86158,-0.018 1.04183,0.15941 1.33335,0.46716 l 0.37663,-0.81741 c -0.15897,-0.66134 -1.07435,-1.1455 -1.66764,-0.85641 z" id="path4175" inkscape:connector-curvature="0" sodipodi:nodetypes="ssscccs"/>
    <path style="color:#000000;font-style:normal;font-variant:normal;font-weight:normal;font-stretch:normal;font-size:medium;line-height:normal;font-family:sans-serif;text-indent:0;text-align:start;text-decoration:none;text-decoration-line:none;text-decoration-style:solid;text-decoration-color:#000000;letter-spacing:normal;word-spacing:normal;text-transform:none;direction:ltr;block-progression:tb;writing-mode:lr-tb;baseline-shift:baseline;text-anchor:start;white-space:normal;clip-rule:nonzero;display:inline;overflow:visible;visibility:visible;opacity:1;isolation:auto;mix-blend-mode:normal;color-interpolation:sRGB;color-interpolation-filters:linearRGB;solid-color:#000000;solid-opacity:1;fill:#000000;fill-opacity:1;fill-rule:evenodd;stroke:none;stroke-width:1px;stroke-linecap:butt;stroke-linejoin:miter;stroke-miterlimit:4;stroke-dasharray:none;stroke-dashoffset:0;stroke-opacity:1;color-rendering:auto;image-rendering:auto;shape-rendering:auto;text-rendering:auto;enable-background:accumulate" d="m 112.24446,132.37331 c -0.5938,0.29694 -0.76811,0.56193 -0.13899,0.77317 0.85717,0.28782 1.80336,0.14815 2.12949,0.14 l 0.69467,0.59997 c 0.67491,0.5829 1.10652,-0.10531 1.50006,-0.35325 0.46224,0.59284 0.92448,0.57594 1.38672,0.59766 0.6321,-0.30961 1.29446,-0.34694 2.01059,0.0997 0.22722,-0.9123 0.73534,-1.5437 1.20469,-2.21387 -1.71423,-0.24425 -2.21073,0.60744 -3.16646,1.04583 -0.28846,0.37059 -0.3039,0.11436 -1.14003,-0.34902 -0.55428,-0.30718 -1.18147,0.13784 -1.46485,0.46843 0.053,-0.28645 -0.45528,-0.67034 -0.8209,-0.78933 -0.76916,0.0412 -1.11922,0.23135 -2.19499,-0.0193 z" id="path4179" inkscape:connector-curvature="0" sodipodi:nodetypes="cscscccccsccc"/>
  </g>
</svg>
